# xmcd
#
# Track frame offsets:
#	150
#	13036
#	27047
#	38232
#	49512
#	69905
#	84101
#	97651
#	109771
#	122171
#	139128
#	151634
#	164982
#	178341
#	190300
#	202305
#	213331
#	224464
#	238061
#	251939
#	264948
#	278319
#	288941
#	303158
#	318197
#
# Disc length: 4442 seconds
# Revision: 0
# Processed by: cddbd v1.5.2PL0 Copyright (c) Steve Scherf et al.
# Submitted via: dBpowerAMP V12.0
#
DISCID=5d115819
DTITLE=Various Artist - Essential Detroit Blues
DYEAR=1900
DGENRE=Blues
TTITLE0=Washboard Willie - Washboard Blues (Part 1)
TTITLE1=One String Sam - My Baby Ooo
TTITLE2=L.C. Green - The Sun Was Shining
TTITLE3=Calvin Frazier - Lillie Mae
TTITLE4=Brother Will Hairston - Alabama Bus
TTITLE5=Eddie 'Guitar' Burns - Hello Miss Jessie Lee
TTITLE6=Detroit Count - Hastings Street Opera (Part 1)
TTITLE7=John Lee Hooker - Bumble Bee Blues
TTITLE8=Doctor Ross - 32-20
TTITLE9=Walter Mitchell - 10. Pet Milk Blues
TTITLE10=Big Maceo - Worried Life Blues No. 2
TTITLE11=Eddie Kirkland - It's Time For Lovin' To Be Done
TTITLE12=Baby Boy Warren - Nervy Woman Blues
TTITLE13=Johnny Howard - Natural Man Blues
TTITLE14=Sylvester Cotton - Ugly Woman Blues
TTITLE15=Robert Henry - Old Battle Ax
TTITLE16=John Lee Hooker - No More Doggin'
TTITLE17=Andrew Dunham - Hattie Mae
TTITLE18=Joe Von Battle - Lookin' For My Woman
TTITLE19=L.C. Green - Going Down the River
TTITLE20=Calvin Frazier - Rock House
TTITLE21=Henry Smith - Good Rockin' Mama
TTITLE22=Playboy Fuller - Gonna Play My Guitar
TTITLE23=Detroit Count - Hastings Street Opera (Part 2)
TTITLE24=Baby Boy Warren - Bad Lover Blues
EXTD=
EXTT0=
EXTT1=
EXTT2=
EXTT3=
EXTT4=
EXTT5=
EXTT6=
EXTT7=
EXTT8=
EXTT9=
EXTT10=
EXTT11=
EXTT12=
EXTT13=
EXTT14=
EXTT15=
EXTT16=
EXTT17=
EXTT18=
EXTT19=
EXTT20=
EXTT21=
EXTT22=
EXTT23=
EXTT24=
PLAYORDER=
